<svg xmlns="http://www.w3.org/2000/svg" width="256" height="256" viewBox="0 0 100 100"><rect width="100" height="100" rx="50" fill="#c6a59d"></rect><path fill="#5f4444" d="M19.31 62.71L19.31 62.71Q21.67 62.71 23.46 62.34Q25.25 61.96 26.47 61.05Q27.68 60.14 28.30 58.64Q28.92 57.14 28.94 54.89L28.94 54.89L31.61 55.35L31.38 61.31Q30.00 62.51 28.47 63.29Q26.95 64.07 25.35 64.53Q23.76 64.99 22.12 65.17Q20.48 65.35 18.87 65.35L18.87 65.35Q15.15 65.35 12.34 64.25Q9.53 63.15 7.62 61.14Q5.72 59.13 4.76 56.31Q3.79 53.49 3.79 50.05L3.79 50.05Q3.79 46.53 4.89 43.70Q5.99 40.87 7.99 38.85Q9.99 36.83 12.78 35.74Q15.56 34.65 18.96 34.65L18.96 34.65Q21.55 34.65 23.85 35.47Q26.14 36.30 27.84 37.79L27.84 37.79L28.09 35.52L30.96 35.52L30.96 43.76L28.30 43.71Q28.16 42.13 27.46 40.91Q26.76 39.70 25.60 38.88Q24.45 38.07 22.85 37.65Q21.26 37.24 19.31 37.24L19.31 37.24Q16.78 37.24 14.75 38.14Q12.72 39.03 11.28 40.68Q9.85 42.33 9.07 44.69Q8.29 47.04 8.29 49.95L8.29 49.95Q8.29 52.91 9.07 55.28Q9.85 57.64 11.28 59.29Q12.72 60.95 14.75 61.83Q16.78 62.71 19.31 62.71ZM56.71 56.79L56.71 56.79Q57.06 58.31 57.36 59.41Q57.65 60.51 58.00 61.21Q58.34 61.91 58.78 62.25Q59.21 62.60 59.86 62.60L59.86 62.60Q60.20 62.60 60.55 62.52Q60.89 62.44 61.16 62.20Q61.44 61.96 61.61 61.52Q61.78 61.08 61.78 60.40L61.78 60.40L64.10 60.19Q64.10 62.58 62.79 63.96Q61.49 65.35 59.10 65.35L59.10 65.35Q57.42 65.35 56.35 64.66Q55.27 63.98 54.53 62.74Q53.80 61.50 53.26 59.78Q52.72 58.06 52.15 55.97L52.15 55.97Q51.73 54.48 51.04 53.30Q50.36 52.13 49.71 51.19L49.71 51.19Q49.02 50.94 48.11 50.83Q47.19 50.71 46.02 50.71L46.02 50.71L42.99 50.71L42.99 61.34Q42.99 61.80 43.13 62.04Q43.26 62.28 43.60 62.38Q43.93 62.48 44.49 62.51Q45.05 62.53 45.88 62.53L45.88 62.53L47.07 62.53L47.07 64.80Q46.39 64.80 45.72 64.80Q45.05 64.80 44.35 64.80Q43.65 64.80 42.86 64.79Q42.07 64.78 41.13 64.76L41.13 64.76Q40.12 64.76 39.25 64.77Q38.38 64.78 37.60 64.78Q36.82 64.78 36.08 64.79Q35.35 64.80 34.61 64.80L34.61 64.80L34.61 62.53L35.76 62.53Q36.91 62.53 37.53 62.44Q38.15 62.35 38.43 62.16Q38.72 61.98 38.77 61.70Q38.81 61.43 38.81 61.06L38.81 61.06L38.81 38.94Q38.81 38.41 38.72 38.11Q38.63 37.81 38.22 37.68Q37.80 37.54 36.96 37.50Q36.13 37.47 34.61 37.47L34.61 37.47L34.61 35.20L47.26 35.20Q49.76 35.20 51.93 35.51Q54.10 35.82 55.68 36.66Q57.26 37.49 58.17 38.98Q59.08 40.48 59.08 42.82L59.08 42.82Q59.08 45.57 57.39 47.41Q55.70 49.24 52.58 49.91L52.58 49.91Q53.27 50.44 53.87 51.02Q54.46 51.61 54.99 52.40Q55.52 53.19 55.94 54.26Q56.37 55.32 56.71 56.79ZM42.99 37.68L42.99 48.49L47.99 48.49Q49.85 48.49 51.17 48.19Q52.49 47.89 53.32 47.25Q54.14 46.60 54.53 45.57Q54.92 44.54 54.92 43.07L54.92 43.07Q54.92 41.39 54.37 40.34Q53.82 39.28 52.75 38.70Q51.69 38.11 50.13 37.89Q48.57 37.68 46.55 37.68L46.55 37.68L42.99 37.68ZM65.02 35.20L65.02 35.20Q65.02 35.20 65.30 35.20Q65.57 35.20 66.01 35.20Q66.44 35.20 66.96 35.20Q67.48 35.20 67.96 35.21Q68.44 35.22 68.83 35.22Q69.22 35.22 69.38 35.22L69.38 35.22Q69.84 35.22 70.41 35.22Q70.99 35.22 71.60 35.21Q72.20 35.20 72.80 35.20Q73.40 35.20 73.88 35.20L73.88 35.20L89.16 60.51L89.21 60.51L89.21 39.12Q89.21 38.53 89.07 38.19Q88.93 37.86 88.61 37.70Q88.29 37.54 87.73 37.50Q87.17 37.47 86.32 37.47L86.32 37.47L85.12 37.47L85.12 35.20Q86.94 35.20 88.18 35.23Q89.42 35.27 90.43 35.27L90.43 35.27Q90.54 35.27 90.86 35.27Q91.18 35.27 91.61 35.27Q92.03 35.27 92.55 35.26Q93.06 35.24 93.57 35.24L93.57 35.24Q94.76 35.22 96.21 35.20L96.21 35.20L96.21 37.47L94.76 37.47Q93.87 37.47 93.37 37.57Q92.88 37.68 92.65 37.88Q92.42 38.09 92.38 38.39Q92.33 38.69 92.33 39.08L92.33 39.08Q92.33 39.08 92.33 39.57Q92.33 40.06 92.32 40.97Q92.31 41.88 92.31 43.14Q92.31 44.40 92.31 45.89L92.31 45.89L92.31 58.35Q92.31 61.73 92.33 65.03L92.33 65.03L87.88 65.03L72.09 39.01L72.04 39.01L72.04 60.79Q72.04 61.43 72.17 61.78Q72.30 62.14 72.62 62.30Q72.94 62.46 73.50 62.50Q74.06 62.53 74.96 62.53L74.96 62.53L76.20 62.53L76.20 64.80Q75.58 64.80 75.00 64.79Q74.43 64.78 73.82 64.78Q73.21 64.78 72.52 64.77Q71.84 64.76 70.96 64.76L70.96 64.76Q70.02 64.76 69.23 64.77Q68.44 64.78 67.72 64.78Q66.99 64.78 66.29 64.79Q65.59 64.80 64.88 64.80L64.88 64.80L64.88 62.53L66.35 62.53Q67.32 62.53 67.84 62.44Q68.37 62.35 68.61 62.12Q68.85 61.89 68.89 61.53Q68.92 61.18 68.92 60.65L68.92 60.65L68.92 39.35Q68.92 38.66 68.83 38.28Q68.74 37.91 68.47 37.72Q68.21 37.54 67.72 37.50Q67.22 37.47 66.42 37.47L66.42 37.47L65.00 37.47Q65.00 37.26 65.00 36.96Q65.00 36.67 65.01 36.35Q65.02 36.02 65.02 35.71Q65.02 35.40 65.02 35.20Z"></path></svg>